<?xml version="1.0" encoding="UTF-8" standalone="no"?>
<!-- Created with Inkscape (http://www.inkscape.org/) -->

<svg
   version="1.1"
   id="svg2"
   width="225"
   height="174"
   viewBox="0 0 225 174"
   sodipodi:docname="paymaster.svg"
   inkscape:version="1.2.2 (b0a8486541, 2022-12-01)"
   inkscape:export-filename="../Documentos/0_Proyectos/paymastersv/public/imagenes/paymaster.svg"
   inkscape:export-xdpi="96"
   inkscape:export-ydpi="96"
   xmlns:inkscape="http://www.inkscape.org/namespaces/inkscape"
   xmlns:sodipodi="http://sodipodi.sourceforge.net/DTD/sodipodi-0.dtd"
   xmlns="http://www.w3.org/2000/svg"
   xmlns:svg="http://www.w3.org/2000/svg">
  <defs
     id="defs6" />
  <sodipodi:namedview
     id="namedview4"
     pagecolor="#ffffff"
     bordercolor="#666666"
     borderopacity="1.0"
     inkscape:showpageshadow="2"
     inkscape:pageopacity="0.0"
     inkscape:pagecheckerboard="0"
     inkscape:deskcolor="#d1d1d1"
     showgrid="false"
     inkscape:zoom="0.832961"
     inkscape:cx="199.88931"
     inkscape:cy="112.85042"
     inkscape:window-width="1366"
     inkscape:window-height="699"
     inkscape:window-x="0"
     inkscape:window-y="0"
     inkscape:window-maximized="1"
     inkscape:current-layer="g3256" />
  <g
     inkscape:groupmode="layer"
     inkscape:label="Image"
     id="g8">
    <g
       id="g3256"
       transform="matrix(1.3584794,0,0,1.4075409,17.942713,3.209827)">
      <path
         style="fill:#4d5f98;fill-opacity:1"
         d="m 10.715867,89.31456 c 0,-0.79534 1.35,-2.00526 3,-2.68871 3.57031,-1.47887 3.68013,-2.77811 0.8954,-10.59345 -3.3118,-9.29453 -3.12229,-24.483031 0.4335,-34.744481 11.9524,-34.4927223 49.7999,-48.8801503 80.67109,-30.666472 3.575003,2.109213 8.011523,5.407564 9.858943,7.32967 3.02815,3.150579 3.64365,3.395488 6.25,2.486909 3.00161,-1.046366 3.50791,-2.288679 1.94173,-4.764433 -1.61345,-2.550477 -0.24591,-2.818528 5.85682,-1.147996 7.48963,2.050177 8.60416,3.10025 3.29056,3.10025 -3.16593,0 -4.00725,0.333637 -3.58911,1.423308 0.73424,1.913397 -0.62339,2.608586 -39.608943,20.282154 -7.975,3.61536 -14.61636,6.6645 -14.75857,6.77586 -0.14221,0.11136 -0.50704,4.87595 -0.81073,10.58797 -0.30368,5.712021 -0.63733,10.417971 -0.74143,10.457661 -0.1041,0.0397 -10.98927,5.04654 -24.18927,11.12635 -27.54194,12.68558 -28.49999,13.05654 -28.49999,11.03541 z m 16,-9.81221 c 0,-0.44135 -0.94215,-3.18162 -2.09366,-6.08948 -1.7719,-4.47451 -2.03609,-6.90066 -1.71906,-15.787021 0.34679,-9.72066 0.65451,-11.0775 4.14591,-18.28052 10.18072,-21.003597 31.6633,-30.6600103 53.87617,-24.217332 5.22943,1.516757 12.11112,5.284494 15.616,8.549782 1.64043,1.5283 3.006353,1.95614 4.804403,1.50485 1.38177,-0.3468 2.36784,-1.014009 2.19127,-1.482686 -0.76969,-2.043002 -9.821093,-8.616034 -15.321043,-11.125978 -21.90293,-9.9955693 -48.7035,-2.41418 -61.93528,17.520354 -9.76282,14.70831 -11.95329,32.473321 -5.94417,48.207981 1.48715,3.89407 1.76136,4.10666 3.98821,3.09204 1.31518,-0.59924 2.39125,-1.45063 2.39125,-1.89199 z m 12.99999,-4.97831 c 5.225,-2.49129 11.86924,-5.59581 14.76498,-6.89893 2.89573,-1.30312 4.92074,-2.67688 4.50001,-3.05279 -0.42074,-0.37592 -2.84965,-1.45861 -5.39755,-2.40599 -5.9701,-2.21983 -11.74729,-7.008681 -13.49167,-11.183571 -2.06898,-4.95177 -1.7285,-12.99682 0.76834,-18.1546 2.42919,-5.01804 8.76417,-9.630866 15.60589,-11.363469 3.58323,-0.907418 4.25001,-1.469481 4.25001,-3.582558 0,-2.241746 -0.31124,-2.444037 -2.94874,-1.916537 -1.62182,0.324362 -5.90127,2.029341 -9.50991,3.788844 -15.49726,7.55617 -26.08796,26.82937 -24.10751,43.871411 1.04908,9.02742 3.70683,16.68392 5.46624,15.74721 0.32995,-0.17566 4.87491,-2.35772 10.09991,-4.84902 z m 21.00001,-33.339181 c 0,-6.46427 -1.31255,-7.78908 -3.50895,-3.54173 -1.62642,3.14515 -1.22669,6.82051 0.89373,8.2174 2.19324,1.44487 2.61522,0.69042 2.61522,-4.67567 z m 6.4182,-0.166 c 1.01233,-0.38847 1.58179,-1.82851 1.58179,-4 0,-2.72635 -0.39296,-3.39301 -2,-3.39301 -1.66667,0 -2,0.66666 -2,4 0,4.28425 0.0205,4.31308 2.41821,3.39301 z m 8.08179,-4.39301 c -0.33992,-0.55 -1.04148,-1 -1.55902,-1 -0.51754,0 -0.94098,0.45 -0.94098,1 0,0.55 0.70156,1 1.55902,1 0.85746,0 1.2809,-0.45 0.94098,-1 z m 21,-9.16639 c 2.0468,-1.92726 -12.42219,-10.297616 -19.89732,-11.510663 -3.32129,-0.538971 -3.60268,-0.391957 -3.60268,1.882258 0,2.149635 0.73948,2.674173 5.75,4.078649 3.1625,0.886466 7.325,2.962576 9.25,4.613576 3.43649,2.94734 6.05752,3.23602 8.5,0.93618 z m -27.5,-9.833612 c 0,-3.218306 -2.57208,-4.278705 -3.63837,-1.5 -0.8143,2.122015 0.29912,4.5 2.10699,4.5 1.03487,0 1.53138,-0.972674 1.53138,-3 z"
         id="path2133"
         sodipodi:nodetypes="sssssssssssssssssssssssssssssssssssssssssssssssssssssssssssssssssss" />
      <path
         style="fill:#9f3669;fill-opacity:1"
         d="m 56.029955,115.21002 c -8.51348,-1.67889 -18.214093,-6.84127 -25.637605,-13.64357 l -6.239891,-5.71773 -3.468295,1.84665 c -1.907562,1.01566 -4.255799,1.86551 -5.218299,1.88856 -2.52869,0.0606 -2.15286,-2.85224 0.5,-3.87517 1.2375,-0.47717 9.900005,-4.5486 19.250005,-9.0476 9.349995,-4.49901 20.937495,-10.01273 25.750005,-12.2527 l 8.74999,-4.07268 V 59.625853 48.91592 l 8.75,-4.07154 c 4.8125,-2.23935 15.5,-7.30443 23.750005,-11.25572 19.16832,-9.18058 19.19819,-9.191703 19.88354,-7.40571 0.84868,2.21164 2.01023,1.73917 3.99829,-1.626335 0.99717,-1.688079 2.04045,-2.841824 2.31839,-2.563879 0.71787,0.717866 -3.69716,13.633114 -4.66043,13.633114 -0.43843,0 -1.35634,-1.35 -2.03979,-3 -1.34397,-3.24464 -1.7407,-3.44966 -3.9595,-2.04619 -1.25319,0.79268 -1.15226,1.67404 0.71393,6.23469 1.1954,2.92132 2.62867,7.3365 3.18506,9.8115 1.35984,6.04898 1.32214,19.677813 -0.0725,26.20078 -2.34976,10.99057 -10.45674,24.05703 -19.22736,30.98981 -13.728655,10.85188 -29.456875,14.72016 -46.325585,11.39358 z m 18.55508,-4.60259 c 17.90047,-2.32384 34.547305,-16.3091 40.821445,-34.29472 2.86355,-8.20875 2.55215,-26.22929 -0.59667,-34.52813 -2.40355,-6.33468 -3.84732,-7.85108 -6.50427,-6.83151 -1.15064,0.44154 -0.94702,1.68824 1.10576,6.77042 2.98725,7.3957 4.0168,18.792293 2.45195,27.14209 -2.54085,13.55768 -12.595195,26.44044 -25.626355,32.83539 -6.72556,3.30052 -7.3992,3.42488 -18.55187,3.42488 -11.33563,0 -11.72558,-0.0758 -19.02102,-3.69891 -4.09647,-2.0344 -8.93841,-5.0719 -10.759853,-6.75 -3.648448,-3.36132 -5.355172,-3.75985 -7.099692,-1.65783 -2.77773,3.34696 16.983565,15.72808 27.911415,17.48744 7.40615,1.19238 7.45879,1.19272 15.86916,0.10088 z m -6.05275,-8.65446 c -0.36239,-3.06117 -2.51932,-4.26493 -3.42288,-1.91028 -0.85392,2.22526 0.24782,4.58316 2.1415,4.58316 1.14414,0 1.50796,-0.75891 1.28138,-2.67288 z m -7.81641,-0.82712 c 0,-1.375 -0.43312,-2.5 -0.96249,-2.5 -2.69261,0 -12.61874,-4.57143 -15.58919,-7.17952 -2.38869,-2.09729 -3.98649,-2.78445 -5.41804,-2.33009 -1.116656,0.35441 -2.030285,1.04948 -2.030285,1.5446 0,1.72419 10.751915,9.00304 16.107265,10.90432 7.15473,2.54011 7.89274,2.49903 7.89274,-0.43931 z m 25.61177,-1.48041 c 15.189045,-7.47755 24.388225,-22.40366 24.388225,-39.571087 0,-7.991383 -2.76632,-19.381133 -5.37596,-22.134413 -0.85772,-0.90493 -4.65249,0.51697 -16.016255,6.00131 l -14.89222,7.18723 5.0558,1.81804 c 7.95311,2.859903 13.90291,7.120533 16.18198,11.587883 4.05339,7.945297 2.03847,21.164307 -4.08389,26.792597 -2.91168,2.67671 -10.03518,5.89518 -15.11946,6.83112 -3.15844,0.58141 -3.75,1.08777 -3.75,3.20986 0,2.35005 0.25063,2.47888 3.72546,1.915 2.049,-0.33251 6.49785,-1.9694 9.88632,-3.63754 z M 68.715865,80.62585 c 0,-3.6071 -0.38806,-5 -1.39301,-5 -1.6609,0 -2.60699,2.14662 -2.60699,5.91512 0,3.05201 0.67427,4.08488 2.66667,4.08488 0.93333,0 1.33333,-1.5 1.33333,-5 z m 8.81144,1.96104 c 3.24521,-3.02337 3.02356,-9.15907 -0.42898,-11.87484 -1.43964,-1.13242 -3.01464,-1.81353 -3.5,-1.51356 -0.48535,0.29997 -0.88246,3.89383 -0.88246,7.98637 0,8.12398 0.85699,9.08616 4.81144,5.40203 z m -16.81143,-0.96104 c 0,-1.92166 -1.95562,-2.71105 -3.32467,-1.34201 -0.75703,0.75703 1.13577,3.34201 2.44711,3.34201 0.48266,0 0.87756,-0.9 0.87756,-2 z"
         id="path2698"
         sodipodi:nodetypes="cscscssscccsssssssssscsccsssssssssssssssssssssssssssscsssssssssssssssssssss" />
    </g>
  </g>
</svg>
